:version 1.10
:name ASF
:units
  mass 1
  length 1
  angle deg
:documentation
  ASF file generated by Kaydara
:root
  axis xyz
  order  tx ty tz rx ry rz
  position 0 0 0
  orientation 0 0 0
:bonedata
  begin
    id 1
    name RightUpLegDummy
    direction -0.718183 -0.695806 0.00816078
    length 4.904
    axis 0 0 0 xyz
  end
  begin
    id 2
    name RightUpLeg
    direction 3.53373e-006 -0.995788 0.0916898
    length 17.4976
    axis -3.49089 -0.000906625 0.000286804 xyz
    dof rx ry rz
  end
  begin
    id 3
    name RightLeg
    direction 0.00371092 -0.995096 -0.0988419
    length 16.5821
    axis 3.68512 0.0193738 -0.131023 xyz
    dof rx ry rz
  end
  begin
    id 4
    name RightFoot
    direction 0.00079151 -0.46099 0.887405
    length 3.77069
    axis 4.81691e-005 -0.120479 -0.188788 xyz
    dof rx ry rz
  end
  begin
    id 5
    name RightToes
    direction 0 0 0
    length 0
    axis 0 0 0 xyz
    dof rx ry rz
  end
  begin
    id 6
    name SpineDummy
    direction 8.3039e-015 1 4.57515e-016
    length 4.6813
    axis 0 0 0 xyz
  end
  begin
    id 7
    name Spine
    direction -3.15643e-008 0.999988 0.00495137
    length 10.1015
    axis -0.001389 0.000121418 2.40972e-006 xyz
    dof rx ry rz
  end
  begin
    id 8
    name Spine1
    direction 0 0 0
    length 0
    axis -0.001389 0.000121451 1.30017e-006 xyz
    dof rx ry rz
  end
  begin
    id 9
    name HEadDummy
    direction -1.99912e-008 0.999999 0.00127422
    length 3.43865
    axis -0.001389 0.000121451 1.30017e-006 xyz
  end
  begin
    id 10
    name HEad
    direction 0 0 0
    length 0
    axis 0 0 0 xyz
    dof rx ry rz
  end
  begin
    id 11
    name LeftShoulder1Dummy
    direction 0.998891 -0.0402509 -0.0244456
    length 3.5433
    axis -0.001389 0.000121451 1.30017e-006 xyz
  end
  begin
    id 12
    name LeftShoulder1
    direction 0.99951 -0.000327763 0.0313091
    length 4.05031
    axis -0.001389 0.000121451 1.30017e-006 xyz
    dof rx ry rz
  end
  begin
    id 13
    name LeftArm
    direction 0.998561 -0.00100056 -0.0536182
    length 10.3537
    axis -23.1894 0.134784 0.967509 xyz
    dof rx ry rz
  end
  begin
    id 14
    name LeftForeArm
    direction 0.998903 0.00866432 0.046012
    length 8.70632
    axis -9.91835 -0.06569 -0.177794 xyz
    dof rx ry rz
  end
  begin
    id 15
    name LeftHand
    direction 0 0 0
    length 0
    axis 0 0 0 xyz
    dof rx ry rz
  end
  begin
    id 16
    name RightShoulderDummy
    direction -0.998891 -0.0402509 -0.0244414
    length 3.5433
    axis -0.001389 0.000121451 1.30017e-006 xyz
  end
  begin
    id 17
    name RightShoulder
    direction -0.99951 -0.000327807 0.0313133
    length 4.05031
    axis 0.215806 0.000203643 -0.0068026 xyz
    dof rx ry rz
  end
  begin
    id 18
    name RightArm
    direction -0.998573 -0.000999564 -0.053403
    length 10.3947
    axis -23.2009 -0.134239 -0.964101 xyz
    dof rx ry rz
  end
  begin
    id 19
    name RightForeArm
    direction -0.998898 0.00868028 0.0461306
    length 8.68355
    axis -9.92322 0.0658061 0.178868 xyz
    dof rx ry rz
  end
  begin
    id 20
    name RightHand
    direction 0 0 0
    length 0
    axis 0 0 0 xyz
    dof rx ry rz
  end
  begin
    id 21
    name LeftUpLegDummy
    direction 0.718183 -0.695806 0.00816078
    length 4.904
    axis 0 0 0 xyz
  end
  begin
    id 22
    name LeftUpLeg
    direction -6.81752e-006 -0.995793 0.0916337
    length 17.4976
    axis -3.48766 0.00143442 -0.000524262 xyz
    dof rx ry rz
  end
  begin
    id 23
    name LeftLeg
    direction -0.00601358 -0.995091 -0.0987824
    length 16.5821
    axis 3.68178 -0.00654042 -0.000285133 xyz
    dof rx ry rz
  end
  begin
    id 24
    name LeftFoot
    direction -0.00417578 -0.460984 0.887399
    length 3.77069
    axis 1.87233e-006 4.66016e-005 -8.6538e-006 xyz
    dof rx ry rz
  end
  begin
    id 25
    name LeftToes
    direction 0 0 0
    length 0
    axis 0 0 0 xyz
    dof rx ry rz
  end
:hierarchy
  begin
    root RightUpLegDummy SpineDummy LeftUpLegDummy
    RightUpLegDummy RightUpLeg
    RightUpLeg RightLeg
    RightLeg RightFoot
    RightFoot RightToes
    SpineDummy Spine
    Spine Spine1
    Spine1 HEadDummy LeftShoulder1Dummy RightShoulderDummy
    HEadDummy HEad
    LeftShoulder1Dummy LeftShoulder1
    LeftShoulder1 LeftArm
    LeftArm LeftForeArm
    LeftForeArm LeftHand
    RightShoulderDummy RightShoulder
    RightShoulder RightArm
    RightArm RightForeArm
    RightForeArm RightHand
    LeftUpLegDummy LeftUpLeg
    LeftUpLeg LeftLeg
    LeftLeg LeftFoot
    LeftFoot LeftToes
  end

:SAMPLES-PER-SECOND 30
:FULLY-SPECIFIED
:DEGREES
330
root  13.7051 40.7098 7.34628 50.621 87.6105 51.8088
RightUpLeg  -2.15304 -10.6673 -10.7754
RightLeg  6.80224 -4.62103 2.20291
RightFoot  0.310596 -0.288424 2.84593
RightToes  0.000481921 0.542163 -0.142578
Spine  7.94801 -1.35894 -5.94253
Spine1  -0.392221 -3.21575 8.39652
HEad  21.5387 7.88582 -1.47012
LeftShoulder1  5.26605 -8.97807 -36.0823
LeftArm  -12.9304 20.3174 -37.1587
LeftForeArm  -172.974 -44.6373 -171.013
LeftHand  -0.25398 0.0180481 5.50724
RightShoulder  3.12374 5.02677 30.6534
RightArm  11.6889 -10.187 38.8914
RightForeArm  157.046 58.4519 162.661
RightHand  -0.830162 1.48772 -14.1409
LeftUpLeg  0.344723 6.01977 3.12711
LeftLeg  3.77022 19.638 -3.78014
LeftFoot  -0.89281 0.118006 -1.16839
LeftToes  1.06247e-005 4.65869e-005 -8.65511e-006
331
root  13.71 40.7187 7.44122 103.41 88.321 104.435
RightUpLeg  -1.79264 -10.8789 -10.7373
RightLeg  6.81542 -6.35872 2.27675
RightFoot  0.0811014 -0.276357 2.76777
RightToes  0.000481921 0.542163 -0.142578
Spine  8.10867 -1.58663 -8.55045
Spine1  -0.914933 -4.10804 11.5514
HEad  21.7088 7.24879 -1.37289
LeftShoulder1  5.11572 -9.0227 -34.7653
LeftArm  -10.5251 18.6219 -38.223
LeftForeArm  -173.713 -44.4836 -171.015
LeftHand  -0.25398 0.0180481 5.50724
RightShoulder  3.03975 4.88742 30.2557
RightArm  11.5074 -9.23351 38.766
RightForeArm  158.512 58.3019 162.882
RightHand  -0.747074 1.08076 -13.5186
LeftUpLeg  -0.0229076 5.80719 3.2088
LeftLeg  3.60015 17.8582 -3.6531
LeftFoot  -0.630088 0.123171 -1.25433
LeftToes  1.06247e-005 4.65869e-005 -8.65511e-006
332
root  13.7261 40.7273 7.50192 131.033 87.7864 131.715
RightUpLeg  -1.95941 -11.0589 -10.7167
RightLeg  6.93791 -7.16315 2.27503
RightFoot  -0.0519602 -0.265416 2.67829
RightToes  0.000481921 0.542163 -0.142578
Spine  7.98861 -1.56897 -9.6536
Spine1  -1.37639 -4.28405 12.7057
HEad  21.7432 6.68676 -1.01539
LeftShoulder1  5.15991 -9.18148 -34.6033
LeftArm  -8.96966 17.4417 -38.0979
LeftForeArm  -172.713 -44.4744 -171.079
LeftHand  -0.25398 0.0180481 5.50724
RightShoulder  2.99753 4.81165 30.0757
RightArm  10.9854 -9.3232 39.8118
RightForeArm  157.925 58.0805 162.97
RightHand  -0.73987 0.896579 -13.7519
LeftUpLeg  -0.29515 5.63589 3.14912
LeftLeg  3.13941 17.0893 -3.70913
LeftFoot  -0.34984 0.126554 -1.29632
LeftToes  1.06247e-005 4.65869e-005 -8.65511e-006
333
root  13.7482 40.7341 7.51715 130.942 87.6033 131.368
RightUpLeg  -2.20647 -11.1723 -10.7934
RightLeg  6.99546 -7.19384 2.27751
RightFoot  -0.0686194 -0.26139 2.63696
RightToes  0.000481921 0.542163 -0.142578
Spine  7.61969 -1.4782 -9.35613
Spine1  -1.2138 -4.02119 11.9057
HEad  21.3384 6.45296 -0.531504
LeftShoulder1  5.30186 -9.27831 -35.3953
LeftArm  -8.492 17.0648 -37.1352
LeftForeArm  -172.129 -44.1718 -171.21
LeftHand  -0.25398 0.0180481 5.50724
RightShoulder  3.0689 4.9495 30.3347
RightArm  10.3174 -9.86498 41.58
RightForeArm  156.682 57.9014 162.974
RightHand  -0.794265 1.12867 -14.252
LeftUpLeg  -0.293348 5.53262 3.0156
LeftLeg  2.58381 17.1046 -3.88267
LeftFoot  -0.120712 0.130078 -1.31469
LeftToes  1.06247e-005 4.65869e-005 -8.65511e-006
334
root  13.7707 40.7386 7.48563 114.083 87.8895 114.448
RightUpLeg  -2.39247 -11.1266 -10.8391
RightLeg  6.94263 -6.57306 2.26967
RightFoot  0.0578867 -0.262131 2.63035
RightToes  0.000481921 0.542163 -0.142578
Spine  7.51732 -1.24576 -7.90008
Spine1  -0.99231 -3.31808 9.54929
HEad  20.5632 6.44485 -0.0254137
LeftShoulder1  5.2293 -8.97828 -35.7953
LeftArm  -8.41854 17.8579 -37.4388
LeftForeArm  -172.647 -44.0175 -171.226
LeftHand  -0.25398 0.0180481 5.50724
RightShoulder  3.20199 5.13363 31.1125
RightArm  9.87729 -10.4597 43.2771
RightForeArm  156.767 57.8218 163.03
RightHand  -0.831981 1.43435 -14.2824
LeftUpLeg  -0.025359 5.51949 2.92159
LeftLeg  2.15309 17.8151 -4.04227
LeftFoot  -0.0343097 0.138901 -1.38641
LeftToes  1.06247e-005 4.65869e-005 -8.65511e-006
335
root  13.8001 40.7442 7.42159 72.4315 87.962 72.793
RightUpLeg  -2.69119 -10.8709 -10.7183
RightLeg  6.78329 -5.31695 2.21257
RightFoot  0.34264 -0.266864 2.62977
RightToes  0.000481921 0.542163 -0.142578
Spine  7.72001 -0.73846 -5.76446
Spine1  -1.18522 -2.17128 6.5279
HEad  19.8514 6.51508 0.237464
LeftShoulder1  4.99942 -8.43201 -35.7834
LeftArm  -8.48752 19.6876 -38.9618
LeftForeArm  -171.949 -44.0885 -171.247
LeftHand  -0.25398 0.0180481 5.50724
RightShoulder  3.32219 5.23311 32.0729
RightArm  9.93062 -10.9455 44.3277
RightForeArm  157.994 57.8733 163.103
RightHand  -0.819865 1.48794 -13.9736
LeftUpLeg  0.381352 5.57578 2.89103
LeftLeg  1.82083 19.3226 -4.14567
LeftFoot  -0.0821673 0.15228 -1.52681
LeftToes  1.06247e-005 4.65869e-005 -8.65511e-006
336
root  13.8436 40.7521 7.34402 32.4033 86.6943 32.7014
RightUpLeg  -3.11311 -10.4725 -10.4797
RightLeg  6.47981 -3.69075 2.15517
RightFoot  0.739809 -0.275471 2.64951
RightToes  0.000481921 0.542163 -0.142578
Spine  7.74035 -0.0785475 -3.76795
Spine1  -1.33175 -0.966367 4.03135
HEad  19.4305 6.77945 0.171997
LeftShoulder1  4.9087 -8.11208 -36.1404
LeftArm  -9.44336 21.9077 -40.1593
LeftForeArm  -170.832 -43.8217 -171.397
LeftHand  -0.25398 0.0180481 5.50724
RightShoulder  3.40151 5.30431 32.6669
RightArm  10.4701 -11.002 44.742
RightForeArm  159.051 58.103 163.052
RightHand  -0.801263 1.40404 -13.8235
LeftUpLeg  0.786119 5.65557 2.87919
LeftLeg  1.53168 21.3564 -4.21764
LeftFoot  -0.216022 0.165271 -1.69011
LeftToes  1.06247e-005 4.65869e-005 -8.65511e-006
337
root  13.898 40.758 7.26145 18.9641 84.7942 19.1394
RightUpLeg  -3.50728 -10.1062 -10.2585
RightLeg  6.05576 -2.03863 2.1759
RightFoot  1.15848 -0.288518 2.70528
RightToes  0.000481921 0.542163 -0.142578
Spine  7.32765 0.418047 -2.42175
Spine1  -1.01112 -0.160299 2.64085
HEad  19.2196 7.57178 -0.139328
LeftShoulder1  4.9711 -8.12465 -36.6178
LeftArm  -11.4056 24.037 -40.7249
LeftForeArm  -172.597 -43.1719 -171.488
LeftHand  -0.25398 0.0180481 5.50724
RightShoulder  3.43469 5.3862 32.6846
RightArm  11.3887 -10.3799 44.8297
RightForeArm  159.903 58.4855 162.888
RightHand  -0.780584 1.29165 -13.6858
LeftUpLeg  1.08117 5.72945 2.85874
LeftLeg  1.36463 23.377 -4.25052
LeftFoot  -0.423513 0.176312 -1.84893
LeftToes  1.06247e-005 4.65869e-005 -8.65511e-006
338
root  13.9535 40.759 7.17966 13.4451 83.004 13.5031
RightUpLeg  -3.82932 -9.86501 -10.099
RightLeg  5.65654 -0.465314 2.25285
RightFoot  1.52174 -0.301415 2.7648
RightToes  0.000481921 0.542163 -0.142578
Spine  6.75507 0.5808 -1.67795
Spine1  -0.508484 0.105697 2.19764
HEad  19.0969 9.27228 -0.861443
LeftShoulder1  4.98565 -8.21668 -36.4144
LeftArm  -13.4172 25.4474 -40.99
LeftForeArm  -176.057 -42.8809 -171.367
LeftHand  -0.25398 0.0180481 5.50724
RightShoulder  3.4367 5.46166 32.3822
RightArm  12.5367 -9.23604 44.7379
RightForeArm  161.356 58.8713 162.771
RightHand  -0.720898 1.0587 -13.0845
LeftUpLeg  1.29623 5.78437 2.82242
LeftLeg  1.31384 25.1671 -4.23913
LeftFoot  -0.652198 0.185545 -1.99396
LeftToes  1.06247e-005 4.65869e-005 -8.65511e-006
339
root  13.9905 40.7575 7.11884 10.7927 81.4873 10.8417
RightUpLeg  -4.06547 -9.71541 -9.99728
RightLeg  5.43011 0.90887 2.2889
RightFoot  1.77103 -0.304252 2.75145
RightToes  0.000481921 0.542163 -0.142578
Spine  6.41879 0.413257 -1.58562
Spine1  -0.179027 -0.162965 2.67674
HEad  18.9948 12.1674 -2.17824
LeftShoulder1  4.88876 -8.26721 -35.4366
LeftArm  -15.0642 24.556 -39.8794
LeftForeArm  -177.49 -43.3806 -171.131
LeftHand  -0.25398 0.0180481 5.50724
RightShoulder  3.45194 5.58458 32.0317
RightArm  13.682 -7.90812 44.5004
RightForeArm  162.8 59.1811 162.699
RightHand  -0.664125 0.890187 -12.3847
LeftUpLeg  1.56792 5.8039 2.74983
LeftLeg  1.21058 26.6741 -4.25039
LeftFoot  -0.762704 0.189189 -2.06201
LeftToes  1.06247e-005 4.65869e-005 -8.65511e-006
340
root  13.975 40.7562 7.10761 10.3475 80.6833 10.5464
RightUpLeg  -4.17073 -9.65708 -9.99948
RightLeg  5.48201 1.64985 2.23091
RightFoot  1.83091 -0.288158 2.60272
RightToes  0.000481921 0.542163 -0.142578
Spine  6.61897 -0.173831 -2.52271
Spine1  -0.247035 -1.09818 4.26558
HEad  18.9594 16.3 -3.66184
LeftShoulder1  4.65592 -8.22575 -33.6231
LeftArm  -16.8192 19.86 -35.6869
LeftForeArm  -178.237 -45.2153 -170.545
LeftHand  -0.25398 0.0180481 5.50724
RightShoulder  3.5012 5.80954 31.6429
RightArm  14.6548 -6.69092 44.3307
RightForeArm  162.605 59.5264 162.456
RightHand  -0.698272 1.1612 -12.4898
LeftUpLeg  1.85916 5.78059 2.63233
LeftLeg  1.01117 27.4876 -4.33959
LeftFoot  -0.653263 0.182048 -1.96786
LeftToes  1.06247e-005 4.65869e-005 -8.65511e-006
341
root  13.8762 40.7507 7.16489 12.1547 80.9931 12.5613
RightUpLeg  -4.28257 -9.73557 -10.1114
RightLeg  5.98029 1.39954 2.07866
RightFoot  1.62968 -0.258076 2.36658
RightToes  0.000481921 0.542163 -0.142578
Spine  7.57508 -1.24417 -4.62007
Spine1  -1.10761 -2.71208 6.76256
HEad  19.18 21.3261 -4.63999
LeftShoulder1  4.1709 -7.99219 -30.1832
LeftArm  -18.313 11.5914 -28.3661
LeftForeArm  176.922 -51.2615 -168.212
LeftHand  -0.25398 0.0180481 5.50724
RightShoulder  3.53591 6.03462 31.1162
RightArm  15.4729 -5.93749 44.4956
RightForeArm  160.877 59.9472 162.018
RightHand  -0.806938 1.72484 -13.3247
LeftUpLeg  1.88896 5.74523 2.51595
LeftLeg  0.929293 27.1612 -4.45319
LeftFoot  -0.364689 0.166021 -1.73661
LeftToes  1.06247e-005 4.65869e-005 -8.65511e-006
